<svg xmlns="http://www.w3.org/2000/svg" width="1387" height="756" viewBox="0 0 1387 756">
<g>
<path d="M 1065.53 399.60 L 1063.95 402.00 L 992.10 402.00 C929.11,402.00 920.09,401.81 918.99,400.48 C917.29,398.44 921.35,376.02 924.01,372.74 L 925.82 370.50 L 996.44 370.23 C1044.56,370.05 1067.69,370.30 1069.03,371.02 C1070.29,371.69 1071.00,373.11 1071.00,374.94 C1071.00,379.86 1067.18,397.08 1065.53,399.60 ZM 1121.97 358.03 C1120.08,359.92 1118.53,360.00 1083.25,359.97 C1060.15,359.95 1045.85,359.56 1044.75,358.92 C1042.15,357.41 1042.50,352.78 1046.97,329.43 C1050.13,312.88 1051.38,308.23 1053.14,306.35 L 1055.35 304.00 L 1092.02 304.00 C1125.69,304.00 1128.82,304.14 1130.22,305.75 C1132.17,307.98 1133.60,317.00 1131.99,317.00 C1131.31,317.00 1131.12,317.81 1131.52,319.05 C1131.87,320.17 1131.74,321.64 1131.22,322.30 C1130.71,322.96 1129.07,329.80 1127.58,337.50 C1126.10,345.20 1124.68,352.52 1124.42,353.78 C1124.16,355.03 1123.06,356.94 1121.97,358.03 ZM 298.05 455.45 C293.41,457.45 287.67,459.36 285.30,459.68 C281.08,460.26 281.00,460.22 281.05,457.39 C281.07,455.80 282.12,450.00 283.38,444.50 L 285.66 434.50 L 290.16 433.86 C292.63,433.50 300.02,430.94 306.58,428.16 C337.45,415.07 351.97,409.16 354.86,408.53 C356.59,408.15 358.00,407.43 358.00,406.92 C358.00,406.41 358.63,406.00 359.39,406.00 C360.16,406.00 363.39,404.54 366.56,402.75 C370.87,400.33 372.93,398.38 374.67,395.09 C376.01,392.55 377.00,391.47 377.00,392.53 C377.00,394.12 377.18,394.18 378.25,392.93 C378.94,392.13 379.41,391.65 379.30,391.86 C379.19,392.07 379.72,392.86 380.48,393.62 C382.46,395.61 384.38,405.17 383.61,409.27 C382.87,413.20 378.45,420.30 375.41,422.43 C374.31,423.20 358.35,430.12 339.95,437.82 C321.55,445.52 302.70,453.45 298.05,455.45 ZM 1114.53 399.60 C1112.80,402.23 1109.55,402.62 1092.35,402.22 C1083.42,402.01 1079.89,401.57 1079.03,400.54 C1077.48,398.67 1081.67,375.64 1084.11,372.61 C1085.69,370.66 1086.97,370.48 1100.84,370.18 C1117.64,369.82 1120.00,370.40 1120.00,374.93 C1120.00,379.56 1116.08,397.23 1114.53,399.60 ZM 1086.09 291.14 C1084.26,293.40 1083.56,293.51 1068.82,293.84 C1054.39,294.15 1053.36,294.05 1051.61,292.13 C1050.10,290.45 1049.89,289.20 1050.46,285.29 C1051.98,274.93 1054.88,264.56 1056.61,263.29 C1057.88,262.37 1062.74,262.00 1073.67,262.00 C1088.43,262.00 1089.00,262.08 1090.40,264.25 C1091.65,266.20 1091.65,267.56 1090.45,274.39 C1089.68,278.73 1089.29,282.67 1089.59,283.14 C1089.88,283.61 1089.64,284.00 1089.06,284.00 C1088.48,284.00 1088.00,285.08 1088.00,286.39 C1088.00,287.70 1087.14,289.84 1086.09,291.14 ZM 1129.77 293.39 C1127.42,293.68 1121.00,294.10 1115.50,294.32 C1104.89,294.76 1099.89,293.34 1099.18,289.70 C1099.01,288.79 1099.84,283.20 1101.03,277.28 C1102.53,269.80 1103.25,265.99 1105.56,264.04 C1107.97,262.00 1112.10,262.00 1120.63,262.00 L 1121.11 262.00 C1137.49,262.00 1140.00,262.68 1140.00,267.08 C1140.00,272.23 1136.86,288.34 1135.40,290.69 C1134.46,292.19 1132.71,293.03 1129.77,293.39 ZM 825.45 353.75 C822.98,355.92 822.18,356.00 803.67,356.00 C781.55,356.00 779.99,355.55 780.02,349.19 C780.03,344.98 780.52,344.05 783.97,341.69 C786.08,340.25 789.23,340.00 805.27,340.00 L 824.09 340.00 L 826.66 342.57 C828.73,344.63 829.10,345.75 828.61,348.32 C828.28,350.07 826.85,352.51 825.45,353.75 ZM 1069.00 348.24 C1069.00,349.65 1069.87,350.00 1073.41,350.00 L 1077.83 350.00 L 1079.17 343.75 L 1080.52 337.50 L 1089.15 337.21 C1097.10,336.95 1097.83,336.75 1098.38,334.71 C1099.60,330.15 1099.37,330.00 1091.06,330.00 C1086.69,330.00 1082.94,329.66 1082.72,329.25 C1082.51,328.84 1082.73,326.59 1083.22,324.25 L 1084.12 320.00 L 1093.94 320.00 C1103.29,320.00 1103.80,319.89 1104.37,317.75 L 1104.41 317.60 C1104.82,316.06 1105.10,315.04 1104.73,314.35 C1104.01,313.00 1100.75,313.00 1091.04,313.00 L 1076.14 313.00 L 1075.00 318.75 C1074.37,321.91 1072.76,329.45 1071.43,335.49 C1070.09,341.54 1069.00,347.28 1069.00,348.24 ZM 851.46 260.26 C848.93,262.99 848.85,263.00 835.41,263.00 C822.41,263.00 821.82,262.91 819.45,260.55 C816.61,257.70 816.42,256.02 818.51,251.99 C820.63,247.88 825.37,246.74 838.68,247.16 C847.90,247.44 850.16,247.83 851.90,249.40 C854.83,252.06 854.64,256.83 851.46,260.26 Z" fill="rgb(235,136,67)"/>
<path d="M 1121.97 358.03 C1123.06,356.94 1124.16,355.03 1124.42,353.78 C1124.68,352.52 1126.10,345.20 1127.58,337.50 C1129.07,329.80 1130.71,322.96 1131.22,322.30 C1131.62,321.80 1131.79,320.83 1131.69,319.90 C1131.80,320.78 1131.69,321.69 1131.39,322.18 C1130.98,322.83 1130.49,327.67 1130.29,332.94 C1130.09,338.20 1129.54,344.73 1129.06,347.45 C1128.59,350.17 1128.58,353.40 1129.04,354.61 C1129.73,356.42 1129.33,357.27 1126.89,359.17 C1123.60,361.73 1122.43,366.37 1124.02,370.54 C1125.12,373.45 1126.23,373.62 1128.61,371.25 C1129.57,370.29 1130.39,369.70 1130.43,369.94 C1130.47,370.18 1131.24,369.96 1132.14,369.44 C1134.20,368.26 1136.08,361.74 1134.90,359.87 C1133.68,357.95 1133.78,357.37 1135.63,355.51 C1136.53,354.62 1137.49,351.87 1137.76,349.42 C1138.33,344.37 1140.00,342.37 1140.00,346.74 C1140.00,351.54 1130.07,402.26 1128.36,406.18 C1126.46,410.55 1122.57,414.47 1118.68,415.94 C1116.74,416.67 1068.60,417.00 963.09,417.00 C816.35,417.00 810.24,416.93 808.65,415.17 C805.93,412.16 806.55,407.56 810.08,404.59 C813.01,402.12 813.71,402.00 825.00,402.00 C836.29,402.00 836.99,401.88 839.92,399.41 C841.75,397.87 843.00,395.87 843.00,394.47 C843.00,393.18 843.41,391.86 843.92,391.55 C845.04,390.86 846.41,396.52 845.49,398.02 C845.12,398.61 845.37,399.74 846.04,400.54 C847.90,402.79 894.11,402.66 901.05,400.39 C906.63,398.56 906.75,398.32 909.38,383.04 L 909.50 382.38 C910.40,377.16 910.89,374.35 909.71,372.80 C908.27,370.92 904.36,370.93 895.71,370.80 C888.45,370.69 881.26,370.64 879.75,370.70 L 876.99 370.80 L 879.50 367.82 C881.16,365.85 882.00,363.63 882.00,361.22 C882.00,358.41 882.27,357.87 883.20,358.80 C884.72,360.32 938.17,360.52 940.99,359.01 C942.01,358.46 943.30,356.55 943.87,354.76 C945.06,351.01 953.00,310.90 953.00,308.64 C953.00,307.82 952.29,306.44 951.43,305.57 C950.09,304.23 946.44,304.00 926.93,304.00 L 904.00 304.00 L 904.00 300.62 C904.00,298.76 903.33,296.68 902.50,296.00 C901.67,295.32 901.00,294.47 901.00,294.13 C901.00,293.78 908.91,293.64 918.57,293.82 C933.30,294.08 936.54,293.87 938.57,292.55 C941.66,290.52 944.44,284.41 944.12,280.35 C943.98,278.62 944.36,275.36 944.97,273.10 C946.28,268.26 948.77,267.68 952.45,271.36 C954.76,273.67 954.78,273.86 953.44,280.11 C951.54,288.98 951.62,292.74 953.75,293.82 C954.71,294.30 958.42,294.64 962.00,294.56 C986.86,294.03 985.96,294.13 988.40,291.69 C989.67,290.42 990.92,288.75 991.17,287.98 C991.92,285.73 999.33,288.37 1000.99,291.49 C1001.73,292.87 1003.10,294.00 1004.02,294.00 C1004.95,294.00 1006.92,295.12 1008.41,296.50 C1010.03,298.00 1012.38,299.04 1014.30,299.10 C1018.51,299.23 1022.11,300.28 1022.14,301.39 C1022.20,303.36 1019.00,303.97 1008.58,303.98 C1000.15,304.00 997.27,303.65 995.96,302.47 C994.72,301.34 993.17,301.11 990.13,301.59 C987.86,301.96 986.00,302.65 986.00,303.13 C986.00,303.61 981.79,304.00 976.65,304.00 C968.87,304.00 967.03,304.31 965.65,305.83 C963.09,308.66 954.56,354.30 956.07,357.12 C957.45,359.71 961.44,360.00 995.47,360.00 C1025.52,360.00 1027.80,359.88 1029.36,358.15 C1030.96,356.38 1034.16,343.18 1037.86,323.00 C1039.57,313.69 1039.67,313.49 1042.55,313.17 C1045.73,312.81 1049.00,310.43 1049.00,308.49 C1049.00,307.83 1050.15,306.05 1051.55,304.54 L 1054.10 301.78 L 1069.30 302.40 C1077.66,302.74 1094.49,303.29 1106.69,303.62 C1115.22,303.85 1120.62,304.04 1124.09,304.32 C1119.11,304.04 1109.85,304.00 1092.02,304.00 L 1055.35 304.00 L 1053.14 306.35 C1051.38,308.23 1050.13,312.88 1046.97,329.43 C1042.50,352.78 1042.15,357.41 1044.75,358.92 C1045.85,359.56 1060.15,359.95 1083.25,359.97 C1118.53,360.00 1120.08,359.92 1121.97,358.03 ZM 317.00 462.54 C292.45,472.88 291.18,473.29 283.00,473.67 C275.67,474.02 273.70,473.73 268.66,471.61 C260.44,468.15 255.49,464.46 252.01,459.20 C250.35,456.70 249.00,454.28 249.00,453.83 C249.00,453.37 247.80,453.00 246.33,453.00 C244.87,453.00 243.93,452.74 244.25,452.41 C245.09,451.58 242.99,446.00 241.84,446.00 C241.31,446.00 241.16,445.55 241.50,445.00 C241.84,444.45 241.08,443.96 239.81,443.91 C238.32,443.86 240.68,442.30 246.50,439.50 C255.41,435.23 255.51,435.20 256.43,437.34 C260.92,447.79 262.22,449.88 264.78,450.72 C269.04,452.13 270.87,451.22 271.91,447.18 C272.43,445.16 273.52,440.81 274.33,437.52 L 275.81 431.53 L 272.60 427.98 C269.63,424.70 267.33,419.65 250.00,378.50 C238.70,351.66 234.73,341.13 234.64,337.75 C234.58,335.62 234.03,334.00 233.37,334.00 C231.62,334.00 226.58,340.14 225.12,344.05 C224.41,345.95 223.42,348.28 222.92,349.24 C221.23,352.43 222.01,356.42 226.49,367.48 C228.99,373.68 230.55,378.85 230.07,379.33 C228.46,380.94 208.80,389.00 206.50,389.00 C205.25,389.00 203.17,388.15 201.88,387.10 C199.88,385.48 199.68,384.80 200.52,382.35 C201.26,380.21 203.14,378.70 208.13,376.25 L 214.77 373.00 L 212.47 367.25 C208.11,356.38 208.36,346.10 213.21,336.07 C217.33,327.55 223.06,323.06 238.50,316.28 C251.68,310.50 272.75,302.00 273.92,302.00 C274.21,302.00 273.44,302.70 272.22,303.56 C269.35,305.57 269.42,307.13 272.50,309.81 C277.33,314.01 274.93,316.71 263.02,320.45 C256.41,322.54 244.81,329.06 245.32,330.40 C245.59,331.11 246.14,334.24 246.53,337.36 C246.91,340.47 247.56,343.23 247.97,343.48 C248.37,343.73 253.30,342.07 258.93,339.79 C266.48,336.73 269.36,335.96 269.91,336.86 C270.33,337.53 271.46,342.67 272.43,348.29 C275.19,364.21 280.99,393.32 281.51,393.85 C281.77,394.11 285.81,392.78 290.49,390.91 C295.21,389.01 297.54,388.17 298.41,386.54 C299.25,384.99 298.75,382.72 297.74,378.13 C297.68,377.83 297.61,377.52 297.54,377.20 C295.08,365.93 291.00,343.89 291.00,341.89 C291.00,340.85 291.40,340.00 291.89,340.00 C293.12,340.00 291.38,332.63 290.05,332.18 C288.60,331.70 288.73,328.45 290.25,327.32 C290.94,326.81 292.70,325.88 294.17,325.25 C296.57,324.23 297.43,324.53 302.67,328.23 C308.82,332.57 316.26,334.93 324.00,335.02 L 328.50 335.07 L 326.29 336.91 C325.07,337.93 319.90,340.43 314.79,342.46 C309.68,344.49 305.16,346.49 304.74,346.89 C303.51,348.07 315.57,411.00 317.03,411.00 C317.46,411.00 320.88,409.67 324.65,408.05 C327.90,406.66 329.72,406.06 330.56,404.80 C331.59,403.25 331.10,400.68 329.89,394.33 C329.73,393.51 329.56,392.63 329.38,391.69 C328.43,386.60 328.10,382.53 328.61,382.05 C329.58,381.16 349.13,372.65 352.75,371.55 C354.10,371.14 355.00,370.07 355.00,368.88 C355.00,364.95 352.74,358.00 351.46,358.00 C350.74,358.00 345.00,360.25 338.69,363.00 C332.39,365.75 326.74,368.00 326.14,368.00 C325.53,368.00 324.81,366.99 324.53,365.75 C322.74,357.87 322.17,354.50 322.56,354.11 C323.07,353.60 336.31,347.73 343.32,344.91 C346.42,343.67 347.85,343.43 347.35,344.24 C345.04,347.93 348.43,354.00 352.80,354.00 C354.95,354.00 357.46,356.51 358.40,359.60 C359.38,362.81 364.22,366.63 371.52,369.94 L 378.13 372.93 L 379.38 369.95 C380.07,368.31 381.00,367.31 381.44,367.73 C381.89,368.15 381.92,367.38 381.52,366.00 C380.86,363.77 380.95,363.66 382.32,365.00 C383.96,366.62 390.69,381.44 394.57,392.00 C399.35,405.01 397.22,418.60 388.89,428.30 C384.19,433.76 378.61,436.83 357.00,445.79 C349.02,449.09 331.02,456.63 317.00,462.54 ZM 1065.53 399.60 C1067.18,397.08 1071.00,379.86 1071.00,374.94 C1071.00,373.11 1070.29,371.69 1069.03,371.02 C1067.69,370.30 1044.56,370.05 996.44,370.23 L 925.82 370.50 L 924.01 372.74 C921.35,376.02 917.29,398.44 918.99,400.48 C920.09,401.81 929.11,402.00 992.10,402.00 L 1063.95 402.00 ZM 298.05 455.45 C302.70,453.45 321.55,445.52 339.95,437.82 C358.35,430.12 374.31,423.20 375.41,422.43 C378.45,420.30 382.87,413.20 383.61,409.27 C384.38,405.17 382.46,395.61 380.48,393.62 C379.92,393.06 379.48,392.48 379.34,392.13 C379.40,391.78 379.38,391.19 379.24,390.47 C378.55,386.88 376.99,387.44 377.08,391.25 C377.12,393.04 377.39,393.93 377.66,393.24 C377.90,392.66 378.34,392.32 378.73,392.38 C378.59,392.54 378.43,392.72 378.25,392.93 C377.18,394.18 377.00,394.12 377.00,392.53 C377.00,391.47 376.01,392.55 374.67,395.09 C372.93,398.38 370.87,400.33 366.56,402.75 C363.39,404.54 360.16,406.00 359.39,406.00 C358.63,406.00 358.00,406.41 358.00,406.92 C358.00,407.43 356.59,408.15 354.86,408.53 C351.97,409.16 337.45,415.07 306.58,428.16 C300.02,430.94 292.63,433.50 290.16,433.86 L 285.66 434.50 L 283.38 444.50 C282.12,450.00 281.07,455.80 281.05,457.39 C281.00,460.22 281.08,460.26 285.30,459.68 C287.67,459.36 293.41,457.45 298.05,455.45 ZM 714.63 485.00 L 710.34 507.50 L 703.67 507.80 C697.78,508.06 697.00,507.88 697.00,506.27 C697.00,505.27 698.80,495.23 700.99,483.97 C703.19,472.71 704.99,463.16 704.99,462.75 C705.00,462.34 700.92,462.00 695.93,462.00 C687.77,462.00 686.92,461.83 687.38,460.25 C687.66,459.29 688.19,456.81 688.56,454.74 L 689.23 450.97 L 720.78 451.24 L 752.32 451.50 L 756.91 463.22 C759.44,469.66 761.94,474.80 762.48,474.64 C763.02,474.48 767.52,469.10 772.48,462.70 L 781.50 451.04 L 788.25 451.02 C791.96,451.01 795.00,451.36 795.00,451.79 C795.00,452.23 791.73,456.62 787.74,461.54 C776.51,475.40 767.47,487.33 766.71,489.31 C766.33,490.30 765.55,494.12 764.97,497.80 C764.03,503.83 763.76,506.30 762.39,507.31 C761.45,508.02 759.97,508.01 757.38,508.00 C757.08,508.00 756.76,508.00 756.43,508.00 C756.09,508.00 755.77,508.00 755.46,508.00 C752.86,508.01 751.36,508.02 750.63,507.27 C749.64,506.24 750.13,503.77 751.30,497.92 C751.40,497.41 751.51,496.88 751.62,496.32 L 753.25 488.14 L 746.47 471.53 C742.74,462.40 739.37,454.73 738.97,454.48 C738.57,454.24 737.96,455.83 737.61,458.02 L 736.98 462.00 L 727.99 462.00 C723.04,462.00 718.98,462.11 718.96,462.25 C718.94,462.39 716.99,472.62 714.63,485.00 ZM 805.14 500.25 L 803.68 508.00 L 796.84 508.00 C793.08,508.00 790.00,507.66 790.00,507.25 C790.01,506.20 797.69,467.04 799.61,458.25 L 801.20 451.00 L 814.55 451.00 C821.89,451.00 830.18,451.49 832.97,452.09 C846.02,454.89 850.82,469.01 842.94,481.43 C838.47,488.48 831.78,491.25 817.55,491.96 L 806.60 492.50 ZM 891.95 490.95 L 888.67 508.00 L 881.77 508.00 C875.66,508.00 874.92,507.80 875.38,506.25 C875.67,505.29 878.22,492.46 881.06,477.75 L 886.23 451.00 L 897.81 451.00 L 900.58 455.75 C905.96,464.96 917.51,482.57 918.48,483.03 C919.04,483.30 920.80,476.63 922.57,467.50 L 925.68 451.50 L 932.34 451.20 C938.21,450.94 938.99,451.12 938.94,452.70 C938.91,453.69 936.54,466.42 933.67,481.00 L 928.46 507.50 L 916.63 507.50 L 906.46 491.23 C900.87,482.28 896.06,474.72 895.76,474.43 C895.47,474.14 893.76,481.57 891.95,490.95 ZM 1090.50 496.50 L 1083.72 508.00 L 1076.86 508.00 C1073.09,508.00 1070.00,507.73 1070.00,507.39 C1070.00,506.78 1074.85,498.93 1094.34,468.00 L 1104.74 451.50 L 1111.82 451.21 L 1118.90 450.91 L 1119.88 454.71 C1127.50,484.10 1133.00,504.84 1133.54,506.25 C1134.14,507.81 1133.47,508.00 1127.17,508.00 C1121.33,508.00 1120.05,507.70 1119.63,506.25 C1119.35,505.29 1118.62,502.57 1118.01,500.22 L 1116.91 495.94 L 1103.70 496.22 ZM 986.92 505.46 C971.45,512.40 952.79,508.07 946.00,495.96 C942.54,489.79 942.45,477.86 945.81,470.50 C948.64,464.32 955.05,457.57 961.00,454.53 C974.16,447.81 992.21,449.20 1000.05,457.55 L 1002.42 460.08 L 997.96 463.96 C993.87,467.52 993.33,467.73 991.50,466.39 C980.66,458.53 965.20,461.70 959.29,473.00 C955.93,479.44 956.45,487.77 960.48,491.98 C962.05,493.61 964.88,495.47 966.78,496.09 C971.29,497.58 979.99,496.74 981.50,494.67 C982.14,493.79 983.23,489.91 983.92,486.04 L 985.18 479.00 L 991.59 479.00 C995.12,479.00 998.00,479.23 998.00,479.52 C998.00,480.23 993.99,499.11 993.41,501.13 C993.15,502.02 990.23,503.97 986.92,505.46 ZM 1175.36 505.61 C1165.83,510.28 1151.34,509.82 1141.00,504.53 C1139.07,503.55 1137.36,502.62 1137.18,502.47 C1136.64,502.00 1141.99,492.00 1142.79,492.00 C1143.21,492.00 1144.49,492.66 1145.63,493.46 C1146.78,494.26 1150.42,495.67 1153.74,496.59 C1161.33,498.70 1167.79,497.92 1171.00,494.50 C1173.13,492.23 1173.18,491.92 1171.71,489.68 C1170.58,487.95 1167.65,486.50 1161.32,484.53 C1151.32,481.41 1147.66,479.17 1145.39,474.79 C1143.40,470.94 1144.23,464.47 1147.30,459.82 C1150.11,455.59 1158.44,451.34 1165.73,450.43 C1171.95,449.65 1182.58,451.21 1187.15,453.58 L 1190.01 455.05 L 1185.01 464.90 L 1181.26 463.32 C1179.16,462.43 1174.39,461.68 1170.46,461.61 C1162.22,461.48 1158.00,463.47 1158.00,467.50 C1158.00,470.33 1162.35,472.93 1170.38,474.90 C1181.59,477.64 1186.00,481.94 1186.00,490.11 C1186.00,496.71 1182.17,502.28 1175.36,505.61 ZM 1042.45 497.50 L 1040.40 507.50 L 1033.70 507.80 C1030.01,507.96 1027.00,507.69 1027.00,507.20 C1027.00,506.71 1029.47,493.98 1032.50,478.91 C1035.53,463.84 1038.00,451.39 1038.00,451.25 C1038.00,451.11 1047.73,451.00 1059.61,451.00 L 1081.22 451.00 L 1080.56 454.75 C1080.02,457.81 1079.88,459.58 1078.94,460.61 C1077.63,462.03 1074.78,462.02 1067.15,462.00 C1066.20,462.00 1065.17,462.00 1064.06,462.00 L 1049.26 462.00 L 1048.65 465.75 C1048.32,467.81 1047.76,470.96 1047.40,472.75 L 1046.75 476.00 L 1073.22 476.00 L 1072.56 478.62 C1072.20,480.06 1071.65,482.52 1071.33,484.09 L 1070.76 486.94 L 1044.50 487.50 ZM 1217.59 504.25 L 1216.91 508.00 L 1209.89 508.00 C1203.67,508.00 1202.92,507.80 1203.37,506.25 C1203.92,504.37 1212.00,463.42 1212.00,462.53 C1212.00,462.24 1207.92,462.00 1202.93,462.00 C1194.77,462.00 1193.92,461.83 1194.38,460.25 C1194.66,459.29 1195.19,456.81 1195.56,454.75 L 1196.22 451.00 L 1221.18 451.00 C1244.48,451.00 1246.10,451.12 1245.62,452.75 C1245.34,453.71 1244.81,456.17 1244.45,458.21 L 1243.79 461.93 L 1234.72 462.21 L 1225.64 462.50 L 1221.96 481.50 C1219.94,491.95 1217.97,502.19 1217.59,504.25 ZM 1114.53 399.60 C1116.08,397.23 1120.00,379.56 1120.00,374.93 C1120.00,370.40 1117.64,369.82 1100.84,370.18 C1086.97,370.48 1085.69,370.66 1084.11,372.61 C1081.67,375.64 1077.48,398.67 1079.03,400.54 C1079.89,401.57 1083.42,402.01 1092.35,402.22 C1109.55,402.62 1112.80,402.23 1114.53,399.60 ZM 867.64 481.50 L 862.42 507.50 L 855.71 507.80 C849.79,508.06 849.01,507.88 849.06,506.30 C849.09,505.31 851.46,492.58 854.32,478.00 L 859.53 451.50 L 866.27 451.20 C872.72,450.92 873.00,451.00 872.93,453.20 C872.89,454.47 870.51,467.20 867.64,481.50 ZM 887.15 259.00 L 886.10 262.00 L 876.58 262.00 C867.52,262.00 866.96,261.88 865.41,259.51 C863.50,256.59 864.05,253.40 867.00,250.23 L 869.08 248.00 L 921.79 248.18 C967.73,248.34 971.29,248.46 949.50,249.06 C927.07,249.69 919.44,250.25 915.14,251.60 C912.80,252.33 915.88,255.00 919.05,255.00 C920.59,255.00 922.48,255.63 923.25,256.39 C924.01,257.16 925.39,257.95 926.29,258.14 C927.34,258.37 927.66,258.96 927.16,259.76 C926.62,260.62 923.13,261.05 915.94,261.12 C906.79,261.22 904.73,260.91 899.27,258.62 C890.92,255.11 888.48,255.19 887.15,259.00 ZM 238.93 429.30 C230.72,432.65 223.30,434.87 225.69,433.26 C227.63,431.95 226.95,426.08 224.66,424.48 C222.71,423.11 222.78,422.99 226.57,421.43 C233.61,418.53 236.11,415.05 234.38,410.55 C233.15,407.35 230.54,406.99 223.38,409.03 C215.22,411.37 215.10,411.38 217.46,409.65 C219.03,408.50 219.14,407.84 218.20,405.15 C217.60,403.42 217.42,401.97 217.80,401.93 C218.19,401.89 217.60,401.49 216.50,401.03 C214.84,400.35 215.98,399.51 223.20,396.13 C223.68,395.91 224.14,395.70 224.58,395.49 C231.53,392.23 234.38,390.89 236.14,391.76 C237.46,392.42 238.16,394.35 239.53,397.68 C241.08,401.43 244.27,408.75 246.61,413.95 C246.92,414.63 247.21,415.26 247.48,415.85 C249.30,419.84 250.26,421.95 249.70,423.49 C248.98,425.43 245.84,426.48 238.93,429.30 ZM 283.32 420.39 C287.65,422.52 288.97,422.42 297.02,419.28 C302.35,417.21 304.00,416.11 304.00,414.62 C304.00,412.28 301.89,399.66 301.41,399.12 C300.60,398.21 277.00,409.50 277.00,410.80 C277.00,413.87 280.32,418.91 283.32,420.39 ZM 809.68 480.25 C810.43,481.55 822.91,481.07 826.40,479.61 C832.74,476.96 835.03,469.73 831.09,464.86 C829.41,462.78 828.17,462.46 820.78,462.16 L 812.38 461.81 L 810.81 470.66 C809.95,475.52 809.45,479.84 809.68,480.25 ZM 1098.00 484.93 C1098.00,485.60 1100.98,486.00 1106.00,486.00 C1112.96,486.00 1114.00,485.77 1113.97,484.25 C1113.94,482.16 1110.35,466.02 1109.79,465.46 C1109.28,464.94 1098.00,483.56 1098.00,484.93 ZM 834.50 384.95 C836.92,385.45 824.98,385.82 804.25,385.89 C771.25,386.00 769.93,385.93 768.00,384.00 C764.68,380.68 765.80,375.22 770.27,372.89 L 772.50 371.73 L 770.25 374.18 C767.79,376.86 767.27,378.53 769.25,377.41 C770.23,376.86 770.24,376.99 769.29,378.02 C768.32,379.06 768.51,379.71 770.19,381.16 C771.35,382.17 773.02,383.03 773.90,383.08 C774.78,383.12 776.40,383.37 777.50,383.63 C778.60,383.89 790.97,384.11 805.00,384.12 C819.03,384.12 832.30,384.50 834.50,384.95 ZM 823.50 323.02 L 832.50 323.70 L 820.82 323.85 C811.39,323.97 808.84,323.70 807.57,322.43 C805.29,320.14 805.58,314.69 808.10,312.40 C810.02,310.67 812.00,310.49 830.35,310.43 L 850.50 310.36 L 830.83 310.93 C820.01,311.24 810.87,311.80 810.51,312.16 C809.85,312.81 809.22,315.31 809.08,317.81 C809.03,318.53 808.55,318.84 808.00,318.50 C807.45,318.16 807.00,318.32 807.00,318.86 C807.00,320.53 814.07,322.31 823.50,323.02 ZM 1068.68 294.98 C1055.31,296.72 1051.46,296.40 1049.07,293.37 C1047.93,291.92 1047.00,290.13 1047.00,289.39 C1047.00,287.65 1050.14,279.65 1051.08,279.00 C1051.33,278.83 1051.78,277.52 1052.25,275.68 C1051.57,278.69 1050.95,281.99 1050.46,285.29 C1049.89,289.20 1050.10,290.45 1051.61,292.13 C1053.36,294.05 1054.39,294.15 1068.82,293.84 C1075.49,293.69 1079.28,293.59 1081.60,293.31 C1081.25,293.39 1080.88,293.45 1080.50,293.49 C1078.30,293.75 1072.98,294.42 1068.68,294.98 ZM 815.45 371.94 C814.44,372.94 793.19,374.31 791.49,373.48 C790.93,373.21 787.11,372.60 782.99,372.13 C776.73,371.40 778.86,371.24 795.95,371.13 C808.67,371.05 816.04,371.35 815.45,371.94 ZM 874.00 372.00 C872.16,373.19 846.27,373.19 843.50,372.00 C842.27,371.47 848.09,371.12 858.50,371.09 C869.82,371.05 875.00,371.35 874.00,372.00 ZM 1100.28 291.78 C1099.03,291.03 1098.00,290.34 1097.69,290.05 C1096.73,289.14 1097.90,283.82 1098.92,284.45 C1099.21,284.63 1099.89,282.54 1100.61,279.40 C1099.65,284.48 1099.03,288.90 1099.18,289.70 C1099.34,290.50 1099.70,291.19 1100.28,291.78 ZM 384.11 385.81 C384.59,387.09 385.44,387.85 385.99,387.51 C387.55,386.54 387.18,384.28 385.36,383.58 C383.21,382.76 383.06,383.04 384.11,385.81 ZM 1118.00 365.00 C1118.00,365.55 1118.68,366.00 1119.50,366.00 C1120.32,366.00 1121.00,365.55 1121.00,365.00 C1121.00,364.45 1120.32,364.00 1119.50,364.00 C1118.68,364.00 1118.00,364.45 1118.00,365.00 ZM 377.00 380.00 C377.00,380.55 377.70,381.00 378.56,381.00 C379.42,381.00 379.84,380.55 379.50,380.00 C379.16,379.45 378.46,379.00 377.94,379.00 C377.42,379.00 377.00,379.45 377.00,380.00 ZM 1052.76 273.53 C1052.87,273.06 1052.97,272.58 1053.06,272.09 C1053.86,268.03 1054.37,265.60 1055.93,264.15 C1054.98,265.77 1053.83,269.23 1052.76,273.53 ZM 1103.35 293.46 C1106.02,294.28 1110.01,294.55 1115.50,294.32 C1120.66,294.11 1126.62,293.73 1129.28,293.45 C1126.62,293.73 1120.66,294.11 1115.50,294.32 C1108.27,294.62 1105.76,294.51 1103.35,293.46 ZM 1105.56 264.04 C1103.87,265.47 1103.02,267.91 1102.10,272.06 C1103.34,266.08 1104.42,263.65 1108.38,262.67 C1107.22,262.97 1106.31,263.40 1105.56,264.04 ZM 1086.62 290.39 C1087.41,289.12 1088.00,287.47 1088.00,286.39 C1088.00,287.90 1087.51,289.27 1086.62,290.39 ZM 1130.25 305.78 C1130.27,305.80 1130.30,305.83 1130.32,305.86 C1131.29,306.96 1132.11,309.88 1132.48,312.45 C1132.10,309.87 1131.24,306.95 1130.25,305.78 Z" fill="rgb(37,81,113)"/>
<path d="M 887.15 259.00 C888.48,255.19 890.92,255.11 899.27,258.62 C904.73,260.91 906.79,261.22 915.94,261.12 C923.13,261.05 926.62,260.62 927.16,259.76 C927.66,258.96 927.34,258.37 926.29,258.14 C925.39,257.95 924.01,257.16 923.25,256.39 C922.48,255.63 920.59,255.00 919.05,255.00 C915.88,255.00 912.80,252.33 915.14,251.60 C919.44,250.25 927.07,249.69 949.50,249.06 C971.29,248.46 967.73,248.34 921.79,248.18 L 870.39 248.00 C877.57,247.28 912.50,247.05 1007.28,247.03 C1015.78,247.03 1023.77,247.03 1031.28,247.02 C1140.02,246.98 1148.11,246.98 1151.76,251.00 C1152.31,251.61 1152.76,252.30 1153.42,253.09 C1156.13,256.30 1156.23,256.80 1155.70,263.98 C1155.39,268.12 1152.83,283.20 1150.02,297.50 C1147.20,311.80 1141.55,341.27 1137.44,363.00 C1137.38,363.36 1137.31,363.71 1137.24,364.07 C1138.84,355.39 1140.00,348.38 1140.00,346.74 C1140.00,342.37 1138.33,344.37 1137.76,349.42 C1137.49,351.87 1136.53,354.62 1135.63,355.51 C1133.78,357.37 1133.68,357.95 1134.90,359.87 C1136.08,361.74 1134.20,368.26 1132.14,369.44 C1131.24,369.96 1130.47,370.18 1130.43,369.94 C1130.39,369.70 1129.57,370.29 1128.61,371.25 C1126.23,373.62 1125.12,373.45 1124.02,370.54 C1122.43,366.37 1123.60,361.73 1126.89,359.17 C1129.33,357.27 1129.73,356.42 1129.04,354.61 C1128.58,353.40 1128.59,350.17 1129.06,347.45 C1129.54,344.73 1130.09,338.20 1130.29,332.94 C1130.49,327.67 1130.98,322.83 1131.39,322.18 C1131.69,321.69 1131.80,320.78 1131.69,319.90 C1131.66,319.61 1131.60,319.32 1131.52,319.05 C1131.12,317.81 1131.31,317.00 1131.99,317.00 C1132.77,317.00 1132.84,314.88 1132.48,312.45 L 1132.48 312.44 C1132.11,309.87 1131.29,306.96 1130.32,305.86 C1130.30,305.83 1130.27,305.80 1130.25,305.78 L 1130.22 305.75 C1129.56,304.99 1128.52,304.56 1124.09,304.32 C1120.62,304.04 1115.22,303.85 1106.69,303.62 C1094.49,303.29 1077.66,302.74 1069.30,302.40 L 1054.10 301.78 L 1051.55 304.54 C1050.15,306.05 1049.00,307.83 1049.00,308.49 C1049.00,310.43 1045.73,312.81 1042.55,313.17 C1039.67,313.49 1039.57,313.69 1037.86,323.00 C1034.16,343.18 1030.96,356.38 1029.36,358.15 C1027.80,359.88 1025.52,360.00 995.47,360.00 C961.44,360.00 957.45,359.71 956.07,357.12 C954.56,354.30 963.09,308.66 965.65,305.83 C967.03,304.31 968.87,304.00 976.65,304.00 C981.79,304.00 986.00,303.61 986.00,303.13 C986.00,302.65 987.86,301.96 990.13,301.59 C993.17,301.11 994.72,301.34 995.96,302.47 C997.27,303.65 1000.15,304.00 1008.58,303.98 C1019.00,303.97 1022.20,303.36 1022.14,301.39 C1022.11,300.28 1018.51,299.23 1014.30,299.10 C1012.38,299.04 1010.03,298.00 1008.41,296.50 C1006.92,295.12 1004.95,294.00 1004.02,294.00 C1003.10,294.00 1001.73,292.87 1000.99,291.49 C999.33,288.37 991.92,285.73 991.17,287.98 C990.92,288.75 989.67,290.42 988.40,291.69 C985.96,294.13 986.86,294.03 962.00,294.56 C958.42,294.64 954.71,294.30 953.75,293.82 C951.62,292.74 951.54,288.98 953.44,280.11 C954.78,273.86 954.76,273.67 952.45,271.36 C948.77,267.68 946.28,268.26 944.97,273.10 C944.36,275.36 943.98,278.62 944.12,280.35 C944.44,284.41 941.66,290.52 938.57,292.55 C936.54,293.87 933.30,294.08 918.57,293.82 C908.91,293.64 901.00,293.78 901.00,294.13 C901.00,294.38 901.37,294.91 901.89,295.44 C899.89,294.04 893.99,294.00 848.57,294.00 C802.84,294.00 796.17,293.81 794.21,292.43 C792.97,291.57 792.23,290.44 792.54,289.93 C792.86,289.42 792.64,289.00 792.06,289.00 C791.48,289.00 791.00,287.88 791.00,286.50 C791.00,285.12 791.34,284.00 791.75,284.00 C792.16,283.99 793.94,282.64 795.70,281.00 L 798.89 278.00 L 841.01 278.00 C871.12,278.00 883.75,277.67 885.32,276.84 C888.55,275.11 889.93,272.88 889.97,269.32 C890.02,264.03 888.05,263.00 877.88,263.00 C870.87,263.00 869.13,262.84 867.37,261.39 C868.73,261.95 871.10,262.00 876.58,262.00 L 886.10 262.00 ZM 389.58 379.59 C386.46,372.38 383.36,366.03 382.32,365.00 C380.95,363.66 380.86,363.77 381.52,366.00 C381.92,367.38 381.89,368.15 381.44,367.73 C381.00,367.31 380.07,368.31 379.38,369.95 L 378.13 372.93 L 371.52 369.94 C364.22,366.63 359.38,362.81 358.40,359.60 C357.46,356.51 354.95,354.00 352.80,354.00 C348.43,354.00 345.04,347.93 347.35,344.24 C347.85,343.43 346.42,343.67 343.32,344.91 C340.88,345.89 337.70,347.24 334.56,348.60 C337.52,347.26 340.93,345.69 343.85,344.30 C352.15,340.35 353.13,339.61 352.60,337.68 C352.27,336.48 351.72,333.81 351.37,331.75 C351.03,329.69 350.28,328.00 349.70,328.00 C349.13,328.00 340.30,331.56 330.08,335.91 C327.02,337.21 323.98,338.51 321.16,339.70 C323.65,338.53 325.60,337.49 326.29,336.91 L 328.50 335.07 L 324.00 335.02 C316.26,334.93 308.82,332.57 302.67,328.23 C297.43,324.53 296.57,324.23 294.17,325.25 C292.70,325.88 290.94,326.81 290.25,327.32 C288.73,328.45 288.60,331.70 290.05,332.18 C291.38,332.63 293.12,340.00 291.89,340.00 C291.40,340.00 291.00,340.85 291.00,341.89 C291.00,343.89 295.08,365.93 297.54,377.20 C297.61,377.52 297.68,377.83 297.74,378.13 C298.75,382.72 299.25,384.99 298.41,386.54 C297.54,388.17 295.21,389.01 290.49,390.91 C285.81,392.78 281.77,394.11 281.51,393.85 C280.99,393.32 275.19,364.21 272.43,348.29 C271.46,342.67 270.33,337.53 269.91,336.86 C269.36,335.96 266.48,336.73 258.93,339.79 C253.30,342.07 248.37,343.73 247.97,343.48 C247.56,343.23 246.91,340.47 246.53,337.36 C246.14,334.24 245.59,331.11 245.32,330.40 C244.81,329.06 256.41,322.54 263.02,320.45 C274.93,316.71 277.33,314.01 272.50,309.81 C269.42,307.13 269.35,305.57 272.22,303.56 C273.44,302.70 274.21,302.00 273.92,302.00 C272.75,302.00 251.68,310.50 238.50,316.28 C237.16,316.87 235.89,317.44 234.69,318.00 C241.08,314.92 249.35,311.40 259.50,307.43 C263.35,305.92 266.95,304.36 267.50,303.96 C268.88,302.95 300.54,289.49 311.21,285.36 C316.79,283.21 321.65,282.00 324.71,282.01 C335.72,282.04 346.15,287.21 352.23,295.65 C354.52,298.83 378.39,352.81 389.58,379.59 ZM 823.50 323.02 C814.07,322.31 807.00,320.53 807.00,318.86 C807.00,318.32 807.45,318.16 808.00,318.50 C808.55,318.84 809.03,318.53 809.08,317.81 C809.22,315.31 809.85,312.81 810.51,312.16 C810.87,311.80 820.01,311.24 830.83,310.93 L 850.50 310.36 L 830.35 310.43 C813.79,310.49 810.56,310.64 808.68,311.94 C808.81,311.82 808.94,311.70 809.08,311.59 L 812.15 309.00 L 854.13 309.00 L 855.65 309.00 C891.91,309.00 899.19,309.00 901.69,305.54 C902.35,304.63 902.68,303.47 903.12,302.00 C903.55,300.57 903.79,299.61 903.81,298.84 C903.93,299.42 904.00,300.03 904.00,300.62 L 904.00 304.00 L 926.93 304.00 C946.44,304.00 950.09,304.23 951.43,305.57 C952.29,306.44 953.00,307.82 953.00,308.64 C953.00,310.90 945.06,351.01 943.87,354.76 C943.30,356.55 942.01,358.46 940.99,359.01 C938.17,360.52 884.72,360.32 883.20,358.80 C882.27,357.87 882.00,358.41 882.00,361.22 C882.00,361.34 882.00,361.46 881.99,361.58 C881.86,356.83 879.50,356.28 860.50,355.52 C844.80,354.90 842.28,354.57 840.75,352.95 C838.84,350.92 838.35,346.00 840.06,346.00 C840.64,346.00 840.88,345.61 840.58,345.13 C840.29,344.66 840.98,343.42 842.13,342.38 C843.69,340.97 846.36,340.36 852.75,339.93 C860.47,339.42 861.52,339.10 863.65,336.63 C866.46,333.35 866.69,328.94 864.17,326.65 C862.57,325.20 859.13,325.00 836.36,325.00 C811.59,325.00 810.27,324.90 808.19,322.96 C808.13,322.90 808.07,322.85 808.01,322.79 C809.44,323.75 812.36,323.96 820.82,323.85 L 832.50 323.70 ZM 834.50 384.95 C832.30,384.50 819.03,384.12 805.00,384.12 C790.97,384.11 778.60,383.89 777.50,383.63 C776.40,383.37 774.78,383.12 773.90,383.08 C773.02,383.03 771.35,382.17 770.19,381.16 C768.51,379.71 768.32,379.06 769.29,378.02 C770.24,376.99 770.23,376.86 769.25,377.41 C767.27,378.53 767.79,376.86 770.25,374.18 L 772.50 371.73 L 770.27 372.89 C769.69,373.19 769.17,373.54 768.71,373.94 L 771.18 371.00 L 874.93 371.00 L 878.47 367.90 C880.08,366.48 881.11,365.19 881.62,363.94 C881.22,365.32 880.51,366.61 879.50,367.82 L 876.99 370.80 L 879.75 370.70 C881.26,370.64 888.45,370.69 895.71,370.80 C904.36,370.93 908.27,370.92 909.71,372.80 C910.89,374.35 910.40,377.16 909.50,382.38 L 909.38 383.04 C906.75,398.32 906.63,398.56 901.05,400.39 C894.11,402.66 847.90,402.79 846.04,400.54 C845.37,399.74 845.12,398.61 845.49,398.02 C846.41,396.52 845.04,390.86 843.92,391.55 C843.41,391.86 843.00,393.18 843.00,394.47 C843.00,395.60 842.19,397.11 840.92,398.46 C843.81,395.36 843.71,391.62 840.55,388.45 L 838.09 386.00 L 804.05 386.00 C781.14,386.00 773.58,385.96 770.45,385.28 C773.58,385.95 781.17,385.96 804.25,385.89 C824.98,385.82 836.92,385.45 834.50,384.95 ZM 238.93 429.30 C245.84,426.48 248.98,425.43 249.70,423.49 C250.26,421.95 249.30,419.84 247.48,415.85 C247.21,415.26 246.92,414.63 246.61,413.95 C244.27,408.75 241.08,401.43 239.53,397.68 C238.16,394.35 237.46,392.42 236.14,391.76 C235.02,391.21 233.46,391.55 230.68,392.71 C236.54,390.00 239.19,388.08 239.61,386.40 C240.50,382.86 239.69,380.68 236.90,379.12 C234.57,377.81 233.88,377.87 229.91,379.74 C218.52,385.10 208.69,389.00 206.56,389.00 C206.55,389.00 206.54,389.00 206.52,389.00 C208.93,388.95 228.47,380.93 230.07,379.33 C230.55,378.85 228.99,373.68 226.49,367.48 C222.01,356.42 221.23,352.43 222.92,349.24 C223.32,348.46 224.05,346.79 224.69,345.17 C224.05,347.07 223.65,349.10 223.48,351.30 C223.25,354.16 223.32,355.63 223.64,354.57 C224.56,351.51 226.62,350.00 229.91,350.00 C233.49,350.00 233.60,350.19 243.00,372.20 C246.94,381.42 249.88,387.03 250.89,387.23 C252.70,387.60 253.15,386.68 252.23,383.79 C267.54,420.10 269.77,424.84 272.60,427.98 L 275.81 431.53 L 274.33 437.52 C273.52,440.81 272.43,445.16 271.91,447.18 C270.87,451.22 269.04,452.13 264.78,450.72 C262.22,449.88 260.92,447.79 256.43,437.34 C255.51,435.20 255.41,435.23 246.50,439.50 C240.68,442.30 238.32,443.86 239.81,443.91 C241.08,443.96 241.84,444.45 241.50,445.00 C241.16,445.55 241.31,446.00 241.84,446.00 C242.99,446.00 245.09,451.58 244.25,452.41 C243.93,452.74 244.87,453.00 246.33,453.00 C246.69,453.00 247.04,453.02 247.35,453.06 C245.39,453.24 241.60,454.52 235.50,457.00 C225.73,460.97 222.36,461.84 223.45,460.09 C223.76,459.58 223.67,459.02 223.26,458.84 C221.85,458.21 218.91,451.69 219.71,450.96 C220.14,450.55 225.00,448.32 230.50,446.00 C236.00,443.67 243.65,440.43 247.50,438.79 C256.35,435.03 258.00,433.54 258.00,429.32 C258.00,426.69 257.45,425.71 255.46,424.80 C253.24,423.79 251.30,424.30 240.21,428.83 C234.94,430.98 231.00,432.45 228.08,433.22 C230.66,432.46 234.69,431.03 238.93,429.30 ZM 1086.09 291.14 C1086.27,290.91 1086.45,290.66 1086.62,290.39 C1087.51,289.27 1088.00,287.90 1088.00,286.39 C1088.00,285.08 1088.48,284.00 1089.06,284.00 C1089.64,284.00 1089.88,283.61 1089.59,283.14 C1089.29,282.67 1089.68,278.73 1090.45,274.39 C1091.65,267.56 1091.65,266.20 1090.40,264.25 C1089.00,262.08 1088.43,262.00 1073.67,262.00 L 1073.62 262.00 L 1073.54 262.00 L 1073.48 262.00 C1067.68,262.00 1063.61,262.11 1060.89,262.35 C1058.54,262.56 1057.19,262.87 1056.61,263.29 C1056.40,263.45 1056.17,263.74 1055.93,264.15 C1054.37,265.60 1053.86,268.03 1053.06,272.09 C1052.97,272.58 1052.87,273.06 1052.76,273.53 C1052.59,274.23 1052.42,274.95 1052.25,275.68 C1051.78,277.52 1051.33,278.83 1051.08,279.00 C1050.14,279.65 1047.00,287.65 1047.00,289.39 C1047.00,290.13 1047.93,291.92 1049.07,293.37 C1051.46,296.40 1055.31,296.72 1068.68,294.98 C1072.98,294.42 1078.30,293.75 1080.50,293.49 C1080.88,293.45 1081.25,293.39 1081.60,293.31 C1084.42,292.97 1085.09,292.38 1086.09,291.14 ZM 1129.77 293.39 C1132.71,293.03 1134.46,292.19 1135.40,290.69 C1136.86,288.34 1140.00,272.23 1140.00,267.08 C1140.00,262.68 1137.49,262.00 1121.11,262.00 L 1120.63 262.00 C1114.75,262.00 1110.95,262.00 1108.38,262.67 C1104.42,263.65 1103.34,266.08 1102.10,272.06 C1101.77,273.57 1101.42,275.29 1101.03,277.28 C1100.88,277.99 1100.74,278.70 1100.61,279.40 C1099.89,282.54 1099.21,284.63 1098.92,284.45 C1097.90,283.82 1096.73,289.14 1097.69,290.05 C1098.00,290.34 1099.03,291.03 1100.28,291.78 C1100.98,292.48 1102.00,293.04 1103.35,293.46 C1105.76,294.51 1108.27,294.62 1115.50,294.32 C1120.66,294.11 1126.62,293.73 1129.28,293.45 C1129.46,293.43 1129.62,293.41 1129.77,293.39 ZM 790.70 323.04 C787.80,324.81 785.55,324.99 766.75,325.00 C747.33,325.00 745.87,324.87 744.00,323.00 C740.95,319.95 741.40,315.36 745.11,311.90 L 748.21 309.00 L 769.05 309.00 C789.41,309.00 789.95,309.05 792.59,311.32 C794.95,313.35 795.20,314.11 794.59,317.37 C794.08,320.08 793.02,321.62 790.70,323.04 ZM 988.00 349.65 C988.00,349.84 990.20,350.00 992.88,350.00 L 997.76 350.00 L 1000.59 335.50 L 1003.41 321.00 L 1009.60 321.00 C1016.19,321.00 1017.00,320.39 1017.00,315.42 L 1017.00 313.00 L 1000.12 313.00 C983.45,313.00 983.23,313.03 982.63,315.25 C981.43,319.73 981.74,320.00 988.05,320.00 L 994.09 320.00 L 993.42 323.75 C993.05,325.81 991.68,332.41 990.38,338.40 C989.07,344.40 988.00,349.46 988.00,349.65 ZM 283.32 420.39 C280.32,418.91 277.00,413.87 277.00,410.80 C277.00,409.50 300.60,398.21 301.41,399.12 C301.89,399.66 304.00,412.28 304.00,414.62 C304.00,416.11 302.35,417.21 297.02,419.28 C288.97,422.42 287.65,422.52 283.32,420.39 ZM 225.92 408.36 C223.07,409.27 218.82,410.95 212.13,413.64 C198.62,419.06 196.83,419.61 197.21,418.25 C197.33,417.84 196.94,416.60 196.35,415.50 C195.76,414.40 195.00,412.35 194.67,410.93 C194.08,408.48 194.56,408.15 205.78,403.30 C212.22,400.51 219.98,397.23 223.00,396.00 C224.62,395.34 226.11,394.72 227.47,394.14 C226.59,394.54 225.63,394.99 224.58,395.49 C224.14,395.70 223.68,395.91 223.20,396.13 C215.98,399.51 214.84,400.35 216.50,401.03 C217.60,401.49 218.19,401.89 217.80,401.93 C217.42,401.97 217.60,403.42 218.20,405.15 C219.14,407.84 219.03,408.50 217.46,409.65 C215.10,411.38 215.22,411.37 223.38,409.03 C224.30,408.77 225.15,408.55 225.92,408.36 ZM 190.04 396.48 C187.25,397.92 181.00,398.67 182.26,397.41 C182.58,397.08 182.21,395.00 181.42,392.78 C180.64,390.56 180.00,388.59 180.00,388.39 C180.00,387.33 187.80,384.98 189.71,385.46 C194.88,386.76 195.09,393.87 190.04,396.48 ZM 209.95 441.03 C207.80,442.18 204.94,442.31 205.15,441.25 C205.24,440.84 204.52,438.73 203.56,436.56 C201.89,432.79 201.89,432.55 203.60,431.31 C206.38,429.27 209.78,429.74 211.52,432.39 C213.40,435.26 212.61,439.60 209.95,441.03 ZM 815.45 371.94 C816.04,371.35 808.67,371.05 795.95,371.13 C778.86,371.24 776.73,371.40 782.99,372.13 C787.11,372.60 790.93,373.21 791.49,373.48 C793.19,374.31 814.44,372.94 815.45,371.94 ZM 334.56 304.34 C341.07,306.59 342.17,306.12 339.44,302.22 C336.22,297.62 328.00,295.22 328.00,298.88 C328.00,301.25 329.69,302.65 334.56,304.34 ZM 225.32 433.78 C221.31,434.27 220.22,432.52 220.22,428.50 C220.21,424.79 222.30,422.31 226.13,421.47 C226.46,421.40 226.79,421.31 227.12,421.20 C226.94,421.27 226.75,421.35 226.57,421.43 C222.78,422.99 222.71,423.11 224.66,424.48 C226.95,426.08 227.63,431.95 225.69,433.26 C225.24,433.56 225.14,433.73 225.32,433.78 ZM 874.00 372.00 C875.00,371.35 869.82,371.05 858.50,371.09 C848.09,371.12 842.27,371.47 843.50,372.00 C846.27,373.19 872.16,373.19 874.00,372.00 ZM 384.11 385.81 C383.06,383.04 383.21,382.76 385.36,383.58 C387.18,384.28 387.55,386.54 385.99,387.51 C385.44,387.85 384.59,387.09 384.11,385.81 ZM 1118.00 365.00 C1118.00,364.45 1118.68,364.00 1119.50,364.00 C1120.32,364.00 1121.00,364.45 1121.00,365.00 C1121.00,365.55 1120.32,366.00 1119.50,366.00 C1118.68,366.00 1118.00,365.55 1118.00,365.00 ZM 377.00 380.00 C377.00,379.45 377.42,379.00 377.94,379.00 C378.46,379.00 379.16,379.45 379.50,380.00 C379.84,380.55 379.42,381.00 378.56,381.00 C377.70,381.00 377.00,380.55 377.00,380.00 ZM 307.25 365.17 C308.98,374.34 311.05,385.15 312.54,392.78 C310.75,384.14 308.78,373.83 307.25,365.17 ZM 234.86 412.38 C234.56,411.19 233.83,409.83 232.98,408.98 C232.55,408.55 232.16,408.20 231.73,407.95 C233.05,408.30 233.85,409.16 234.38,410.55 C234.62,411.18 234.78,411.79 234.86,412.38 ZM 209.47 349.55 C209.04,355.31 210.04,361.19 212.47,367.25 C209.81,360.62 208.89,355.31 209.47,349.55 ZM 864.86 258.51 C864.33,257.65 864.00,256.82 864.00,256.27 C864.00,255.66 864.23,254.86 864.63,253.99 C864.12,255.53 864.19,257.05 864.86,258.51 ZM 230.65 419.37 C232.40,418.13 233.87,416.56 234.56,415.10 C233.99,416.65 232.69,418.07 230.65,419.37 ZM 241.18 357.18 C242.96,361.61 245.16,366.94 247.82,373.31 C245.44,367.75 243.16,362.20 241.18,357.18 ZM 329.24 350.94 C325.99,352.39 323.42,353.58 322.72,354.00 C322.75,353.96 322.77,353.94 322.80,353.91 C323.19,353.59 325.98,352.30 329.00,351.04 C329.08,351.01 329.16,350.97 329.24,350.94 ZM 806.33 320.19 C805.75,318.61 805.79,316.88 806.41,315.24 C805.93,316.84 805.89,318.66 806.33,320.19 ZM 230.33 336.19 C231.57,334.88 232.71,334.00 233.37,334.00 C233.59,334.00 233.80,334.19 233.99,334.52 C233.35,333.72 232.21,334.29 230.33,336.19 ZM 768.00 384.00 C766.83,382.83 766.20,381.51 766.11,380.10 C766.26,381.51 766.88,382.88 768.00,384.00 ZM 1128.37 406.18 C1127.41,408.37 1125.96,410.44 1124.27,412.15 C1125.96,410.44 1127.41,408.36 1128.36,406.18 C1128.46,405.96 1128.57,405.62 1128.71,405.14 C1128.57,405.64 1128.46,405.98 1128.37,406.18 ZM 867.09 250.13 C867.45,249.70 867.83,249.29 868.21,248.93 ZM 902.93 296.49 C902.80,296.34 902.66,296.17 902.50,296.00 C902.65,296.12 902.79,296.29 902.93,296.49 ZM 394.57 392.00 C395.52,394.59 396.20,397.21 396.61,399.81 C396.20,397.21 395.52,394.59 394.57,392.00 C394.49,391.79 394.41,391.57 394.33,391.35 C394.42,391.58 394.50,391.80 394.57,392.00 Z" fill="rgb(63,148,193)"/>
<path d="M 0.00 378.00 L 0.00 0.00 L 693.50 0.00 L 1387.00 0.00 L 1387.00 378.00 L 1387.00 756.00 L 693.50 756.00 L 0.00 756.00 L 0.00 378.00 ZM 986.92 505.46 C990.23,503.97 993.15,502.02 993.41,501.13 C993.99,499.11 998.00,480.23 998.00,479.52 C998.00,479.23 995.12,479.00 991.59,479.00 L 985.18 479.00 L 983.92 486.04 C983.23,489.91 982.14,493.79 981.50,494.67 C979.99,496.74 971.29,497.58 966.78,496.09 C964.88,495.47 962.05,493.61 960.48,491.98 C956.45,487.77 955.93,479.44 959.29,473.00 C965.20,461.70 980.66,458.53 991.50,466.39 C993.33,467.73 993.87,467.52 997.96,463.96 L 1002.42 460.08 L 1000.05 457.55 C992.21,449.20 974.16,447.81 961.00,454.53 C955.05,457.57 948.64,464.32 945.81,470.50 C942.45,477.86 942.54,489.79 946.00,495.96 C952.79,508.07 971.45,512.40 986.92,505.46 ZM 1175.36 505.61 C1182.17,502.28 1186.00,496.71 1186.00,490.11 C1186.00,481.94 1181.59,477.64 1170.38,474.90 C1162.35,472.93 1158.00,470.33 1158.00,467.50 C1158.00,463.47 1162.22,461.48 1170.46,461.61 C1174.39,461.68 1179.16,462.43 1181.26,463.32 L 1185.01 464.90 L 1187.51 459.98 L 1190.01 455.05 L 1187.15 453.58 C1182.58,451.21 1171.95,449.65 1165.73,450.43 C1158.44,451.34 1150.11,455.59 1147.30,459.82 C1144.23,464.47 1143.40,470.94 1145.39,474.79 C1147.66,479.17 1151.32,481.41 1161.32,484.53 C1167.65,486.50 1170.58,487.95 1171.71,489.68 C1173.18,491.92 1173.13,492.23 1171.00,494.50 C1167.79,497.92 1161.33,498.70 1153.74,496.59 C1150.42,495.67 1146.78,494.26 1145.63,493.46 C1144.49,492.66 1143.21,492.00 1142.79,492.00 C1141.99,492.00 1136.64,502.00 1137.18,502.47 C1137.36,502.62 1139.07,503.55 1141.00,504.53 C1151.34,509.82 1165.83,510.28 1175.36,505.61 ZM 714.63 485.00 C716.99,472.62 718.94,462.39 718.96,462.25 C718.98,462.11 723.04,462.00 727.99,462.00 L 736.98 462.00 L 737.61 458.02 C737.96,455.83 738.57,454.24 738.97,454.48 C739.37,454.73 742.74,462.40 746.47,471.53 L 753.25 488.14 L 751.62 496.32 C749.19,508.58 748.95,508.00 756.43,508.00 C763.73,508.00 763.30,508.51 764.97,497.80 C765.55,494.12 766.33,490.30 766.71,489.31 C767.47,487.33 776.51,475.40 787.74,461.54 C791.73,456.62 795.00,452.23 795.00,451.79 C795.00,451.36 791.96,451.01 788.25,451.02 L 781.50 451.04 L 772.48 462.70 C767.52,469.10 763.02,474.48 762.48,474.64 C761.94,474.80 759.44,469.66 756.91,463.22 L 752.32 451.50 L 720.78 451.24 L 689.23 450.97 L 688.56 454.74 C688.19,456.81 687.66,459.29 687.38,460.25 C686.92,461.83 687.77,462.00 695.93,462.00 C700.92,462.00 705.00,462.34 704.99,462.75 C704.99,463.16 703.19,472.71 700.99,483.97 C698.80,495.23 697.00,505.27 697.00,506.27 C697.00,507.88 697.78,508.06 703.67,507.80 L 710.34 507.50 L 714.63 485.00 ZM 805.14 500.25 L 806.60 492.50 L 817.55 491.96 C831.78,491.25 838.47,488.48 842.94,481.43 C850.82,469.01 846.02,454.89 832.97,452.09 C830.18,451.49 821.89,451.00 814.55,451.00 L 801.20 451.00 L 799.61 458.25 C797.69,467.04 790.01,506.20 790.00,507.25 C790.00,507.66 793.08,508.00 796.84,508.00 L 803.68 508.00 L 805.14 500.25 ZM 867.64 481.50 C870.51,467.20 872.89,454.47 872.93,453.20 C873.00,451.00 872.72,450.92 866.27,451.20 L 859.53 451.50 L 854.32 478.00 C851.46,492.58 849.09,505.31 849.06,506.30 C849.01,507.88 849.79,508.06 855.71,507.80 L 862.42 507.50 L 867.64 481.50 ZM 891.95 490.95 C893.76,481.57 895.47,474.14 895.76,474.43 C896.06,474.72 900.87,482.28 906.46,491.23 L 916.63 507.50 L 922.55 507.50 L 928.46 507.50 L 933.67 481.00 C936.54,466.42 938.91,453.69 938.94,452.70 C938.99,451.12 938.21,450.94 932.34,451.20 L 925.68 451.50 L 922.57 467.50 C920.80,476.63 919.04,483.30 918.48,483.03 C917.51,482.57 905.96,464.96 900.58,455.75 L 897.81 451.00 L 892.02 451.00 L 886.23 451.00 L 881.06 477.75 C878.22,492.46 875.67,505.29 875.38,506.25 C874.92,507.80 875.66,508.00 881.77,508.00 L 888.67 508.00 L 891.95 490.95 ZM 1042.45 497.50 L 1044.50 487.50 L 1057.63 487.22 L 1070.76 486.94 L 1071.33 484.09 C1071.65,482.52 1072.20,480.06 1072.56,478.62 L 1073.22 476.00 L 1059.98 476.00 L 1046.75 476.00 L 1047.40 472.75 C1047.76,470.96 1048.32,467.81 1048.65,465.75 L 1049.26 462.00 L 1064.06 462.00 C1080.46,462.00 1079.17,462.56 1080.56,454.75 L 1081.22 451.00 L 1059.61 451.00 C1047.73,451.00 1038.00,451.11 1038.00,451.25 C1038.00,451.39 1035.53,463.84 1032.50,478.91 C1029.47,493.98 1027.00,506.71 1027.00,507.20 C1027.00,507.69 1030.01,507.96 1033.70,507.80 L 1040.40 507.50 L 1042.45 497.50 ZM 1087.11 502.25 L 1090.50 496.50 L 1103.70 496.22 L 1116.91 495.94 L 1118.01 500.22 C1118.62,502.57 1119.35,505.29 1119.63,506.25 C1120.05,507.70 1121.33,508.00 1127.17,508.00 C1133.47,508.00 1134.14,507.81 1133.54,506.25 C1133.00,504.84 1127.50,484.10 1119.88,454.71 L 1118.90 450.91 L 1111.82 451.21 L 1104.74 451.50 L 1094.34 468.00 C1074.85,498.93 1070.00,506.78 1070.00,507.39 C1070.00,507.73 1073.09,508.00 1076.86,508.00 L 1083.72 508.00 L 1087.11 502.25 ZM 1217.59 504.25 C1217.97,502.19 1219.94,491.95 1221.96,481.50 L 1225.64 462.50 L 1234.72 462.21 L 1243.79 461.93 L 1244.45 458.21 C1244.81,456.17 1245.34,453.71 1245.62,452.75 C1246.10,451.12 1244.48,451.00 1221.18,451.00 L 1196.22 451.00 L 1195.56 454.75 C1195.19,456.81 1194.66,459.29 1194.38,460.25 C1193.92,461.83 1194.77,462.00 1202.93,462.00 C1207.92,462.00 1212.00,462.24 1212.00,462.53 C1212.00,463.42 1203.92,504.37 1203.37,506.25 C1202.92,507.80 1203.67,508.00 1209.89,508.00 L 1216.91 508.00 L 1217.59 504.25 ZM 317.00 462.54 C331.02,456.63 349.02,449.09 357.00,445.79 C378.61,436.83 384.19,433.76 388.89,428.30 C397.22,418.61 399.35,405.01 394.57,392.00 C389.13,377.18 354.99,299.49 352.23,295.65 C346.15,287.21 335.72,282.04 324.71,282.01 C321.65,282.00 316.79,283.21 311.21,285.36 C300.54,289.49 268.88,302.95 267.50,303.96 C266.95,304.36 263.35,305.92 259.50,307.43 C237.57,316.01 224.43,322.50 219.96,326.96 C214.55,332.36 211.39,338.50 209.91,346.50 C208.62,353.51 209.35,359.48 212.47,367.25 L 214.77 373.00 L 208.13 376.25 C203.14,378.70 201.26,380.21 200.52,382.35 C199.68,384.80 199.88,385.48 201.88,387.10 C203.17,388.15 205.27,389.00 206.56,389.00 C208.69,389.00 218.52,385.10 229.91,379.74 C233.88,377.87 234.57,377.81 236.90,379.12 C239.69,380.68 240.50,382.86 239.61,386.40 C239.04,388.69 234.33,391.41 223.00,396.00 C219.98,397.23 212.22,400.51 205.78,403.30 C194.56,408.15 194.08,408.48 194.67,410.93 C195.00,412.35 195.76,414.40 196.35,415.50 C196.94,416.60 197.33,417.84 197.21,418.25 C196.83,419.61 198.62,419.06 212.13,413.64 C229.45,406.69 230.46,406.46 232.98,408.98 C234.09,410.09 235.00,412.08 235.00,413.41 C235.00,416.30 230.32,420.55 226.13,421.47 C222.30,422.31 220.21,424.79 220.22,428.50 C220.23,435.56 223.58,435.62 240.21,428.83 C251.30,424.30 253.24,423.79 255.46,424.80 C257.45,425.71 258.00,426.69 258.00,429.32 C258.00,433.54 256.35,435.03 247.50,438.79 C243.65,440.43 236.00,443.67 230.50,446.00 C225.00,448.32 220.14,450.55 219.71,450.96 C218.91,451.69 221.85,458.21 223.26,458.84 C223.67,459.02 223.76,459.58 223.45,460.09 C222.36,461.84 225.73,460.97 235.50,457.00 C245.13,453.08 249.00,452.17 249.00,453.83 C249.00,454.28 250.35,456.70 252.01,459.20 C255.49,464.46 260.44,468.15 268.66,471.61 C273.70,473.73 275.67,474.02 283.00,473.67 C291.18,473.29 292.45,472.88 317.00,462.54 ZM 209.95 441.03 C212.61,439.60 213.40,435.26 211.52,432.39 C209.78,429.74 206.38,429.27 203.60,431.31 C201.89,432.55 201.89,432.79 203.56,436.56 C204.52,438.73 205.24,440.84 205.15,441.25 C204.94,442.31 207.80,442.18 209.95,441.03 ZM 1118.68 415.94 C1122.57,414.47 1126.46,410.55 1128.37,406.18 C1129.26,404.15 1133.34,384.73 1137.44,363.00 C1141.55,341.27 1147.20,311.80 1150.02,297.50 C1152.83,283.20 1155.39,268.12 1155.70,263.98 C1156.23,256.80 1156.13,256.30 1153.42,253.09 C1147.97,246.61 1157.28,247.00 1007.28,247.03 C901.31,247.06 870.15,247.34 868.95,248.28 C866.53,250.19 864.00,254.27 864.00,256.27 C864.00,257.27 865.10,259.20 866.45,260.55 C868.70,262.79 869.69,263.00 877.88,263.00 C888.05,263.00 890.02,264.03 889.97,269.32 C889.93,272.88 888.55,275.11 885.32,276.84 C883.75,277.67 871.12,278.00 841.01,278.00 L 798.89 278.00 L 795.70 281.00 C793.94,282.64 792.16,283.99 791.75,284.00 C791.34,284.00 791.00,285.12 791.00,286.50 C791.00,287.88 791.48,289.00 792.06,289.00 C792.64,289.00 792.86,289.42 792.54,289.93 C792.23,290.44 792.97,291.57 794.21,292.43 C796.17,293.81 802.84,294.00 848.57,294.00 C899.44,294.00 900.73,294.05 902.50,296.00 C904.09,297.76 904.17,298.50 903.12,302.00 C901.00,309.08 901.54,309.00 854.13,309.00 L 812.15 309.00 L 809.08 311.59 C805.24,314.82 804.85,319.85 808.19,322.96 C810.27,324.90 811.59,325.00 836.36,325.00 C859.13,325.00 862.57,325.20 864.17,326.65 C866.69,328.94 866.46,333.35 863.65,336.63 C861.52,339.10 860.47,339.42 852.75,339.93 C846.36,340.36 843.69,340.97 842.13,342.38 C840.98,343.42 840.29,344.66 840.58,345.13 C840.88,345.61 840.64,346.00 840.06,346.00 C838.35,346.00 838.84,350.92 840.75,352.95 C842.28,354.57 844.80,354.90 860.50,355.52 C880.12,356.30 882.00,356.87 882.00,362.05 C882.00,363.94 880.90,365.76 878.47,367.90 L 874.93 371.00 L 823.05 371.00 L 771.18 371.00 L 768.59 374.08 C765.49,377.76 765.28,381.28 768.00,384.00 C769.92,385.92 771.33,386.00 804.05,386.00 L 838.09 386.00 L 840.55 388.45 C844.04,391.95 843.80,396.15 839.92,399.41 C836.99,401.88 836.29,402.00 825.00,402.00 C813.71,402.00 813.01,402.12 810.08,404.59 C806.55,407.56 805.93,412.16 808.65,415.17 C810.24,416.93 816.35,417.00 963.09,417.00 C1068.60,417.00 1116.74,416.67 1118.68,415.94 ZM 190.04 396.48 C195.09,393.87 194.88,386.76 189.71,385.46 C187.80,384.98 180.00,387.33 180.00,388.39 C180.00,388.59 180.64,390.56 181.42,392.78 C182.21,395.00 182.58,397.08 182.26,397.41 C181.00,398.67 187.25,397.92 190.04,396.48 ZM 825.45 353.75 C826.85,352.51 828.28,350.07 828.61,348.32 C829.10,345.75 828.73,344.63 826.66,342.57 L 824.09 340.00 L 805.27 340.00 C789.23,340.00 786.08,340.25 783.97,341.69 C780.52,344.05 780.03,344.98 780.02,349.19 C779.99,355.55 781.55,356.00 803.67,356.00 C822.18,356.00 822.98,355.92 825.45,353.75 ZM 790.70 323.04 C793.02,321.62 794.08,320.08 794.59,317.37 C795.20,314.11 794.95,313.35 792.59,311.32 C789.95,309.05 789.41,309.00 769.05,309.00 L 748.21 309.00 L 745.11 311.90 C741.40,315.36 740.95,319.95 744.00,323.00 C745.87,324.87 747.33,325.00 766.75,325.00 C785.55,324.99 787.80,324.81 790.70,323.04 ZM 851.46 260.26 C854.64,256.83 854.83,252.06 851.90,249.40 C850.16,247.83 847.90,247.44 838.68,247.16 C825.37,246.74 820.63,247.88 818.51,251.99 C816.42,256.02 816.61,257.70 819.45,260.55 C821.82,262.91 822.41,263.00 835.41,263.00 C848.85,263.00 848.93,262.99 851.46,260.26 ZM 809.68 480.25 C809.45,479.84 809.95,475.52 810.81,470.66 L 812.38 461.81 L 820.78 462.16 C828.17,462.46 829.41,462.78 831.09,464.86 C835.03,469.73 832.74,476.96 826.40,479.61 C822.91,481.07 810.43,481.55 809.68,480.25 ZM 1098.00 484.93 C1098.00,483.56 1109.28,464.94 1109.79,465.46 C1110.35,466.02 1113.94,482.16 1113.97,484.25 C1114.00,485.77 1112.96,486.00 1106.00,486.00 C1100.98,486.00 1098.00,485.60 1098.00,484.93 ZM 314.13 400.75 C312.16,391.32 304.00,348.25 304.00,347.31 C304.00,347.08 305.69,346.21 307.75,345.36 C309.81,344.51 319.86,340.26 330.08,335.91 C340.30,331.56 349.13,328.00 349.70,328.00 C350.28,328.00 351.03,329.69 351.37,331.75 C351.72,333.81 352.27,336.48 352.60,337.68 C353.13,339.61 352.15,340.35 343.85,344.30 C338.71,346.75 332.02,349.78 329.00,351.04 C325.98,352.30 323.19,353.59 322.80,353.91 C322.19,354.43 322.60,357.27 324.53,365.75 C324.81,366.99 325.53,368.00 326.14,368.00 C326.74,368.00 332.39,365.75 338.69,363.00 C345.00,360.25 350.74,358.00 351.46,358.00 C352.74,358.00 355.00,364.95 355.00,368.88 C355.00,370.07 354.10,371.14 352.75,371.55 C349.13,372.65 329.58,381.16 328.61,382.05 C328.10,382.53 328.43,386.60 329.38,391.69 C332.07,405.95 332.43,404.71 324.65,408.05 C320.88,409.67 317.46,411.00 317.03,411.00 C316.61,411.00 315.30,406.39 314.13,400.75 ZM 377.08 391.25 C376.99,387.44 378.55,386.88 379.24,390.47 C379.50,391.83 379.36,392.73 378.94,392.46 C378.52,392.20 377.94,392.55 377.66,393.24 C377.39,393.93 377.12,393.04 377.08,391.25 ZM 250.89 387.23 C249.88,387.03 246.94,381.42 243.00,372.20 C233.60,350.19 233.49,350.00 229.91,350.00 C226.62,350.00 224.56,351.51 223.64,354.57 C223.32,355.63 223.25,354.16 223.48,351.30 C223.94,345.50 225.96,340.86 229.80,336.75 C233.28,333.03 234.51,333.29 234.64,337.75 C234.73,341.05 242.43,361.29 250.48,379.39 C253.31,385.75 253.41,387.74 250.89,387.23 ZM 334.56 304.34 C329.69,302.65 328.00,301.25 328.00,298.88 C328.00,295.22 336.22,297.62 339.44,302.22 C342.17,306.12 341.07,306.59 334.56,304.34 ZM 988.00 349.65 C988.00,349.46 989.07,344.40 990.38,338.40 C991.68,332.41 993.05,325.81 993.42,323.75 L 994.09 320.00 L 988.05 320.00 C981.74,320.00 981.43,319.73 982.63,315.25 C983.23,313.03 983.45,313.00 1000.12,313.00 L 1017.00 313.00 L 1017.00 315.42 C1017.00,320.39 1016.19,321.00 1009.60,321.00 L 1003.41 321.00 L 1000.59 335.50 L 997.76 350.00 L 992.88 350.00 C990.20,350.00 988.00,349.84 988.00,349.65 ZM 1069.00 348.24 C1069.00,347.28 1070.09,341.54 1071.43,335.49 C1072.76,329.45 1074.37,321.91 1075.00,318.75 L 1076.14 313.00 L 1090.57 313.00 C1105.80,313.00 1105.66,312.95 1104.37,317.75 C1103.80,319.89 1103.29,320.00 1093.94,320.00 L 1084.12 320.00 L 1083.22 324.25 C1082.73,326.59 1082.51,328.84 1082.72,329.25 C1082.94,329.66 1086.69,330.00 1091.06,330.00 C1099.37,330.00 1099.60,330.15 1098.38,334.71 C1097.83,336.75 1097.10,336.95 1089.15,337.21 L 1080.52 337.50 L 1079.17 343.75 L 1077.83 350.00 L 1073.41 350.00 C1069.87,350.00 1069.00,349.65 1069.00,348.24 Z" fill="rgb(249,252,252)"/>
</g>
</svg>